<svg width="138" height="44" viewBox="0 0 138 44" fill="none" xmlns="http://www.w3.org/2000/svg">
<path d="M22 0.200195C26.5246 0.200195 30.1469 0.442651 33.0371 1.08496C35.9251 1.72679 38.0698 2.76513 39.6523 4.34766C41.2349 5.93018 42.2732 8.07493 42.915 10.9629C43.5573 13.8531 43.7998 17.4754 43.7998 22C43.7998 26.5246 43.5573 30.1469 42.915 33.0371C42.2732 35.9251 41.2349 38.0698 39.6523 39.6523C38.0698 41.2349 35.9251 42.2732 33.0371 42.915C30.1469 43.5573 26.5246 43.7998 22 43.7998C17.4754 43.7998 13.8531 43.5573 10.9629 42.915C8.07493 42.2732 5.93018 41.2349 4.34766 39.6523C2.76513 38.0698 1.72679 35.9251 1.08496 33.0371C0.442651 30.1469 0.200195 26.5246 0.200195 22C0.200195 17.4754 0.442651 13.8531 1.08496 10.9629C1.72679 8.07493 2.76513 5.93018 4.34766 4.34766C5.93018 2.76513 8.07493 1.72679 10.9629 1.08496C13.8531 0.442651 17.4754 0.200195 22 0.200195Z" fill="black" stroke="white" stroke-width="0.4"/>
<path d="M23.3279 33.001C21.3736 33.001 19.6147 32.55 18.0512 31.648C16.4877 30.746 15.255 29.4381 14.353 27.7243C13.451 26.0105 13 23.9509 13 21.5456C13 19.0801 13.4811 16.9905 14.4432 15.2767C15.4354 13.5629 16.7283 12.255 18.3218 11.353C19.9454 10.451 21.6893 10 23.5534 10C24.9966 10 26.2293 10.2405 27.2516 10.7216C28.3039 11.2027 29.2059 11.819 29.9576 12.5707L28.1085 14.8708C27.5673 14.3296 26.9209 13.9087 26.1692 13.608C25.4476 13.2773 24.6208 13.1119 23.6887 13.1119C22.3958 13.1119 21.2232 13.4727 20.1709 14.1943C19.1486 14.8858 18.3368 15.863 17.7355 17.1258C17.1342 18.3886 16.8335 19.8619 16.8335 21.5456C16.8335 23.1993 17.1191 24.6575 17.6904 25.9203C18.2617 27.1831 19.0584 28.1753 20.0807 28.8969C21.103 29.5884 22.2906 29.9342 23.6436 29.9342C24.6659 29.9342 25.613 29.7388 26.4849 29.3479C27.3568 28.957 28.1085 28.4609 28.7399 27.8596L30.3635 30.1146C29.4314 30.9865 28.3791 31.6931 27.2065 32.2343C26.0339 32.7454 24.741 33.001 23.3279 33.001Z" fill="white"/>
<path d="M58.612 29.264C57.3947 29.264 56.2873 28.978 55.29 28.406C54.3073 27.834 53.5227 26.998 52.936 25.898C52.364 24.7833 52.078 23.434 52.078 21.85C52.078 20.6767 52.2467 19.628 52.584 18.704C52.9213 17.7653 53.3907 16.9733 53.992 16.328C54.608 15.6827 55.312 15.1913 56.104 14.854C56.896 14.5167 57.7467 14.348 58.656 14.348C59.5653 14.348 60.372 14.5313 61.076 14.898C61.78 15.25 62.3593 15.6753 62.814 16.174L61.45 17.736C61.0833 17.3547 60.6727 17.0687 60.218 16.878C59.778 16.6727 59.2793 16.57 58.722 16.57C57.9593 16.57 57.27 16.7827 56.654 17.208C56.0527 17.6333 55.576 18.2347 55.224 19.012C54.872 19.7893 54.696 20.7133 54.696 21.784C54.696 22.884 54.8647 23.83 55.202 24.622C55.5393 25.3993 56.016 26.0007 56.632 26.426C57.248 26.8367 57.9667 27.042 58.788 27.042C59.404 27.042 59.954 26.9173 60.438 26.668C60.922 26.4187 61.362 26.0887 61.758 25.678L63.056 27.196C62.4693 27.8707 61.8093 28.384 61.076 28.736C60.3427 29.088 59.5213 29.264 58.612 29.264ZM69.7038 29.264C68.8091 29.264 67.9731 29.044 67.1958 28.604C66.4184 28.1493 65.7878 27.504 65.3038 26.668C64.8198 25.8173 64.5778 24.798 64.5778 23.61C64.5778 22.4073 64.8198 21.388 65.3038 20.552C65.7878 19.7013 66.4184 19.056 67.1958 18.616C67.9731 18.1613 68.8091 17.934 69.7038 17.934C70.6131 17.934 71.4564 18.1613 72.2338 18.616C73.0111 19.056 73.6418 19.7013 74.1258 20.552C74.6098 21.388 74.8518 22.4073 74.8518 23.61C74.8518 24.798 74.6098 25.8173 74.1258 26.668C73.6418 27.504 73.0111 28.1493 72.2338 28.604C71.4564 29.044 70.6131 29.264 69.7038 29.264ZM69.7038 27.196C70.2318 27.196 70.6864 27.0493 71.0678 26.756C71.4491 26.4627 71.7424 26.0447 71.9478 25.502C72.1531 24.9593 72.2558 24.3287 72.2558 23.61C72.2558 22.8913 72.1531 22.2607 71.9478 21.718C71.7424 21.1753 71.4491 20.7573 71.0678 20.464C70.6864 20.156 70.2318 20.002 69.7038 20.002C69.1758 20.002 68.7211 20.156 68.3398 20.464C67.9731 20.7573 67.6871 21.1753 67.4818 21.718C67.2764 22.2607 67.1738 22.8913 67.1738 23.61C67.1738 24.3287 67.2764 24.9593 67.4818 25.502C67.6871 26.0447 67.9731 26.4627 68.3398 26.756C68.7211 27.0493 69.1758 27.196 69.7038 27.196ZM77.356 29V18.198H79.886V29H77.356ZM78.61 16.306C78.17 16.306 77.8033 16.174 77.51 15.91C77.2313 15.646 77.092 15.294 77.092 14.854C77.092 14.414 77.2313 14.0693 77.51 13.82C77.8033 13.556 78.17 13.424 78.61 13.424C79.0647 13.424 79.4313 13.556 79.71 13.82C79.9887 14.0693 80.128 14.414 80.128 14.854C80.128 15.294 79.9887 15.646 79.71 15.91C79.4313 16.174 79.0647 16.306 78.61 16.306ZM83.1138 29V18.198H85.2038L85.3798 19.65H85.4678C85.9518 19.1807 86.4798 18.7773 87.0518 18.44C87.6238 18.1027 88.2765 17.934 89.0098 17.934C90.1685 17.934 91.0118 18.308 91.5398 19.056C92.0678 19.804 92.3318 20.86 92.3318 22.224V29H89.8018V22.554C89.8018 21.6593 89.6698 21.0287 89.4058 20.662C89.1418 20.2953 88.7091 20.112 88.1078 20.112C87.6385 20.112 87.2205 20.2293 86.8538 20.464C86.5018 20.684 86.0985 21.014 85.6438 21.454V29H83.1138ZM99.8464 29.264C98.849 29.264 97.903 29.0807 97.0084 28.714C96.1284 28.3473 95.3437 27.8267 94.6544 27.152L96.0404 25.48C96.5537 25.9787 97.1477 26.3673 97.8224 26.646C98.5117 26.91 99.201 27.042 99.8904 27.042C100.712 27.042 101.335 26.8733 101.76 26.536C102.186 26.1987 102.398 25.7513 102.398 25.194C102.398 24.798 102.303 24.4827 102.112 24.248C101.922 23.9987 101.658 23.786 101.32 23.61C100.998 23.434 100.616 23.258 100.176 23.082L98.1964 22.224C97.727 22.0187 97.265 21.7547 96.8104 21.432C96.3704 21.0947 96.0037 20.684 95.7104 20.2C95.4317 19.7013 95.2924 19.1 95.2924 18.396C95.2924 17.6333 95.4977 16.9513 95.9084 16.35C96.3337 15.734 96.9057 15.25 97.6244 14.898C98.3577 14.5313 99.1937 14.348 100.132 14.348C100.998 14.348 101.812 14.5093 102.574 14.832C103.352 15.14 104.012 15.5653 104.554 16.108L103.212 17.78C102.743 17.3987 102.252 17.1053 101.738 16.9C101.225 16.68 100.69 16.57 100.132 16.57C99.4577 16.57 98.9077 16.724 98.4824 17.032C98.0717 17.3253 97.8664 17.736 97.8664 18.264C97.8664 18.6307 97.969 18.9387 98.1744 19.188C98.3944 19.4227 98.6804 19.628 99.0324 19.804C99.399 19.9653 99.773 20.1267 100.154 20.288L102.112 21.102C102.684 21.3513 103.19 21.6447 103.63 21.982C104.07 22.3193 104.408 22.73 104.642 23.214C104.892 23.698 105.016 24.292 105.016 24.996C105.016 25.7733 104.811 26.4847 104.4 27.13C103.99 27.7753 103.396 28.296 102.618 28.692C101.856 29.0733 100.932 29.264 99.8464 29.264ZM110.031 29.264C109.4 29.264 108.843 29.132 108.359 28.868C107.875 28.604 107.493 28.2373 107.215 27.768C106.951 27.284 106.819 26.7267 106.819 26.096C106.819 24.8787 107.325 23.962 108.337 23.346C109.363 22.7153 110.984 22.2827 113.199 22.048C113.184 21.6813 113.111 21.344 112.979 21.036C112.861 20.728 112.656 20.486 112.363 20.31C112.084 20.1193 111.703 20.024 111.219 20.024C110.691 20.024 110.17 20.1193 109.657 20.31C109.158 20.5007 108.667 20.7427 108.183 21.036L107.259 19.32C107.655 19.0707 108.087 18.8433 108.557 18.638C109.026 18.418 109.525 18.2493 110.053 18.132C110.581 18 111.131 17.934 111.703 17.934C112.597 17.934 113.338 18.1173 113.925 18.484C114.526 18.836 114.973 19.364 115.267 20.068C115.575 20.7573 115.729 21.608 115.729 22.62V29H113.639L113.463 27.812H113.375C112.876 28.2227 112.355 28.5673 111.813 28.846C111.27 29.1247 110.676 29.264 110.031 29.264ZM110.823 27.196C111.263 27.196 111.666 27.108 112.033 26.932C112.414 26.7413 112.803 26.4627 113.199 26.096V23.808C112.216 23.9253 111.439 24.0793 110.867 24.27C110.295 24.4607 109.884 24.6953 109.635 24.974C109.4 25.238 109.283 25.5533 109.283 25.92C109.283 26.3747 109.429 26.7047 109.723 26.91C110.016 27.1007 110.383 27.196 110.823 27.196ZM119.196 29V17.076C119.196 16.328 119.314 15.6607 119.548 15.074C119.798 14.4873 120.186 14.0327 120.714 13.71C121.242 13.3727 121.932 13.204 122.782 13.204C123.178 13.204 123.545 13.2407 123.882 13.314C124.234 13.3873 124.528 13.4753 124.762 13.578L124.234 15.404C123.853 15.272 123.472 15.206 123.09 15.206C122.65 15.206 122.313 15.3527 122.078 15.646C121.844 15.9393 121.726 16.4013 121.726 17.032V29H119.196ZM117.59 20.2V18.308L119.35 18.198H123.838V20.2H117.59ZM130.166 29.264C129.154 29.264 128.237 29.044 127.416 28.604C126.609 28.1493 125.971 27.504 125.502 26.668C125.033 25.8173 124.798 24.7907 124.798 23.588C124.798 22.4147 125.04 21.41 125.524 20.574C126.008 19.7233 126.631 19.0707 127.394 18.616C128.157 18.1613 128.963 17.934 129.814 17.934C130.797 17.934 131.618 18.154 132.278 18.594C132.938 19.034 133.429 19.6427 133.752 20.42C134.089 21.1827 134.258 22.0627 134.258 23.06C134.258 23.2947 134.243 23.522 134.214 23.742C134.199 23.962 134.17 24.1747 134.126 24.38H126.69V22.444H132.014C132.014 21.6667 131.838 21.058 131.486 20.618C131.134 20.1633 130.591 19.936 129.858 19.936C129.447 19.936 129.044 20.046 128.648 20.266C128.267 20.486 127.944 20.86 127.68 21.388C127.431 21.916 127.306 22.6493 127.306 23.588C127.306 24.4387 127.453 25.1353 127.746 25.678C128.039 26.206 128.428 26.602 128.912 26.866C129.396 27.1153 129.917 27.24 130.474 27.24C130.943 27.24 131.383 27.174 131.794 27.042C132.219 26.91 132.615 26.7267 132.982 26.492L133.862 28.12C133.363 28.472 132.791 28.7507 132.146 28.956C131.515 29.1613 130.855 29.264 130.166 29.264Z" fill="white"/>
</svg>
