<svg width="138" height="44" viewBox="0 0 138 44" fill="none" xmlns="http://www.w3.org/2000/svg">
<path d="M0 22C0 3.883 3.883 0 22 0C40.117 0 44 3.883 44 22C44 40.117 40.117 44 22 44C3.883 44 0 40.117 0 22Z" fill="black"/>
<path d="M23.3279 33.001C21.3736 33.001 19.6147 32.55 18.0512 31.648C16.4877 30.746 15.255 29.4381 14.353 27.7243C13.451 26.0105 13 23.9509 13 21.5456C13 19.0801 13.4811 16.9905 14.4432 15.2767C15.4354 13.5629 16.7283 12.255 18.3218 11.353C19.9454 10.451 21.6893 10 23.5534 10C24.9966 10 26.2293 10.2405 27.2516 10.7216C28.3039 11.2027 29.2059 11.819 29.9576 12.5707L28.1085 14.8708C27.5673 14.3296 26.9209 13.9087 26.1692 13.608C25.4476 13.2773 24.6208 13.1119 23.6887 13.1119C22.3958 13.1119 21.2232 13.4727 20.1709 14.1943C19.1486 14.8858 18.3368 15.863 17.7355 17.1258C17.1342 18.3886 16.8335 19.8619 16.8335 21.5456C16.8335 23.1993 17.1191 24.6575 17.6904 25.9203C18.2617 27.1831 19.0584 28.1753 20.0807 28.8969C21.103 29.5884 22.2906 29.9342 23.6436 29.9342C24.6659 29.9342 25.613 29.7388 26.4849 29.3479C27.3568 28.957 28.1085 28.4609 28.7399 27.8596L30.3635 30.1146C29.4314 30.9865 28.3791 31.6931 27.2065 32.2343C26.0339 32.7454 24.741 33.001 23.3279 33.001Z" fill="white"/>
<path d="M58.766 29.264C57.534 29.264 56.4047 28.9927 55.378 28.45C54.366 27.8927 53.552 27.064 52.936 25.964C52.32 24.864 52.012 23.5147 52.012 21.916C52.012 20.728 52.188 19.672 52.54 18.748C52.9067 17.8093 53.4053 17.0173 54.036 16.372C54.6667 15.7267 55.3853 15.2353 56.192 14.898C57.0133 14.5607 57.8787 14.392 58.788 14.392C59.712 14.392 60.5407 14.5753 61.274 14.942C62.0073 15.3087 62.616 15.7487 63.1 16.262L61.384 18.22C61.032 17.8827 60.6507 17.6333 60.24 17.472C59.8293 17.296 59.3673 17.208 58.854 17.208C58.2233 17.208 57.6367 17.3987 57.094 17.78C56.566 18.1467 56.1407 18.6747 55.818 19.364C55.4953 20.0533 55.334 20.8673 55.334 21.806C55.334 22.7887 55.488 23.632 55.796 24.336C56.104 25.0253 56.5293 25.5533 57.072 25.92C57.6293 26.2867 58.2673 26.47 58.986 26.47C59.5433 26.47 60.042 26.3527 60.482 26.118C60.922 25.8833 61.3107 25.6047 61.648 25.282L63.276 27.196C62.66 27.8853 61.978 28.406 61.23 28.758C60.482 29.0953 59.6607 29.264 58.766 29.264ZM69.9207 29.264C68.9967 29.264 68.1314 29.044 67.3247 28.604C66.518 28.1493 65.858 27.4967 65.3447 26.646C64.846 25.7807 64.5967 24.7467 64.5967 23.544C64.5967 22.3413 64.846 21.3147 65.3447 20.464C65.858 19.5987 66.518 18.946 67.3247 18.506C68.1314 18.0513 68.9967 17.824 69.9207 17.824C70.83 17.824 71.688 18.0513 72.4947 18.506C73.3014 18.946 73.954 19.5987 74.4527 20.464C74.966 21.3147 75.2227 22.3413 75.2227 23.544C75.2227 24.7467 74.966 25.7807 74.4527 26.646C73.954 27.4967 73.3014 28.1493 72.4947 28.604C71.688 29.044 70.83 29.264 69.9207 29.264ZM69.9207 26.646C70.3607 26.646 70.7274 26.5213 71.0207 26.272C71.3287 26.0227 71.556 25.6633 71.7027 25.194C71.8494 24.7247 71.9227 24.1747 71.9227 23.544C71.9227 22.9133 71.8494 22.3633 71.7027 21.894C71.556 21.4247 71.3287 21.0653 71.0207 20.816C70.7274 20.5667 70.3607 20.442 69.9207 20.442C69.466 20.442 69.092 20.5667 68.7987 20.816C68.5054 21.0653 68.2854 21.4247 68.1387 21.894C67.992 22.3633 67.9187 22.9133 67.9187 23.544C67.9187 24.1747 67.992 24.7247 68.1387 25.194C68.2854 25.6633 68.5054 26.0227 68.7987 26.272C69.092 26.5213 69.466 26.646 69.9207 26.646ZM77.4378 29V18.088H80.6718V29H77.4378ZM79.0438 16.482C78.5011 16.482 78.0611 16.328 77.7238 16.02C77.3865 15.712 77.2178 15.3013 77.2178 14.788C77.2178 14.2747 77.3865 13.864 77.7238 13.556C78.0611 13.248 78.5011 13.094 79.0438 13.094C79.5865 13.094 80.0265 13.248 80.3638 13.556C80.7011 13.864 80.8698 14.2747 80.8698 14.788C80.8698 15.3013 80.7011 15.712 80.3638 16.02C80.0265 16.328 79.5865 16.482 79.0438 16.482ZM83.5179 29V18.088H86.1579L86.3779 19.474H86.4659C86.9206 19.0193 87.4339 18.6307 88.0059 18.308C88.5779 17.9853 89.2306 17.824 89.9639 17.824C91.1666 17.824 92.0319 18.22 92.5599 19.012C93.0879 19.7893 93.3519 20.86 93.3519 22.224V29H90.1179V22.642C90.1179 21.85 90.0079 21.3073 89.7879 21.014C89.5826 20.7207 89.2452 20.574 88.7759 20.574C88.3652 20.574 88.0132 20.6693 87.7199 20.86C87.4266 21.036 87.1039 21.2927 86.7519 21.63V29H83.5179ZM100.75 29.264C99.7964 29.264 98.8577 29.0953 97.9337 28.758C97.0097 28.406 96.1811 27.878 95.4477 27.174L97.1637 25.062C97.6771 25.502 98.2564 25.8467 98.9017 26.096C99.5617 26.3453 100.207 26.47 100.838 26.47C101.512 26.47 102.011 26.3453 102.334 26.096C102.671 25.8467 102.84 25.5093 102.84 25.084C102.84 24.776 102.752 24.534 102.576 24.358C102.414 24.1673 102.18 23.9987 101.872 23.852C101.564 23.7053 101.197 23.544 100.772 23.368L98.9017 22.598C98.4177 22.378 97.9484 22.0993 97.4937 21.762C97.0537 21.41 96.6944 20.9847 96.4157 20.486C96.1517 19.9727 96.0197 19.364 96.0197 18.66C96.0197 17.868 96.2324 17.1567 96.6577 16.526C97.0977 15.8807 97.6991 15.3673 98.4617 14.986C99.2391 14.59 100.126 14.392 101.124 14.392C101.989 14.392 102.825 14.546 103.632 14.854C104.438 15.162 105.142 15.6093 105.744 16.196L104.028 18.286C103.558 17.934 103.074 17.6627 102.576 17.472C102.092 17.2813 101.608 17.186 101.124 17.186C100.566 17.186 100.119 17.3033 99.7817 17.538C99.4591 17.758 99.2977 18.0733 99.2977 18.484C99.2977 18.7627 99.3931 19.0047 99.5837 19.21C99.7744 19.4007 100.038 19.5693 100.376 19.716C100.713 19.848 101.08 20.002 101.476 20.178L103.324 20.926C103.91 21.1607 104.409 21.454 104.82 21.806C105.245 22.158 105.575 22.5833 105.81 23.082C106.044 23.566 106.162 24.1453 106.162 24.82C106.162 25.612 105.949 26.3453 105.524 27.02C105.098 27.6947 104.482 28.2373 103.676 28.648C102.869 29.0587 101.894 29.264 100.75 29.264ZM111.082 29.264C110.422 29.264 109.843 29.1173 109.344 28.824C108.86 28.5307 108.486 28.1347 108.222 27.636C107.958 27.1373 107.826 26.58 107.826 25.964C107.826 24.7907 108.31 23.8887 109.278 23.258C110.246 22.6127 111.808 22.18 113.964 21.96C113.95 21.6373 113.876 21.366 113.744 21.146C113.627 20.9113 113.444 20.7353 113.194 20.618C112.945 20.486 112.63 20.42 112.248 20.42C111.794 20.42 111.332 20.5007 110.862 20.662C110.393 20.8233 109.887 21.058 109.344 21.366L108.2 19.254C108.67 18.9607 109.154 18.7113 109.652 18.506C110.151 18.286 110.664 18.1173 111.192 18C111.735 17.8827 112.292 17.824 112.864 17.824C113.803 17.824 114.588 18.0073 115.218 18.374C115.864 18.726 116.355 19.2687 116.692 20.002C117.03 20.7207 117.198 21.6447 117.198 22.774V29H114.558L114.338 27.878H114.25C113.781 28.2887 113.29 28.626 112.776 28.89C112.263 29.1393 111.698 29.264 111.082 29.264ZM112.16 26.734C112.527 26.734 112.85 26.6533 113.128 26.492C113.407 26.3307 113.686 26.1107 113.964 25.832V23.984C113.202 24.0867 112.593 24.2187 112.138 24.38C111.698 24.5413 111.383 24.7393 111.192 24.974C111.016 25.194 110.928 25.4433 110.928 25.722C110.928 26.0593 111.038 26.316 111.258 26.492C111.493 26.6533 111.794 26.734 112.16 26.734ZM120.484 29V17.516C120.484 16.7387 120.609 16.0347 120.858 15.404C121.122 14.7733 121.547 14.2673 122.134 13.886C122.735 13.5047 123.527 13.314 124.51 13.314C124.965 13.314 125.383 13.358 125.764 13.446C126.145 13.534 126.453 13.622 126.688 13.71L126.05 16.02C125.683 15.9173 125.324 15.866 124.972 15.866C124.576 15.866 124.268 15.9907 124.048 16.24C123.828 16.4747 123.718 16.8707 123.718 17.428V29H120.484ZM118.878 20.618V18.22L120.704 18.088H125.676V20.618H118.878ZM132.101 29.264C131.06 29.264 130.121 29.0367 129.285 28.582C128.449 28.1273 127.789 27.4747 127.305 26.624C126.821 25.7733 126.579 24.7467 126.579 23.544C126.579 22.356 126.821 21.3367 127.305 20.486C127.804 19.6353 128.449 18.9827 129.241 18.528C130.033 18.0587 130.862 17.824 131.727 17.824C132.768 17.824 133.634 18.0587 134.323 18.528C135.012 18.9827 135.526 19.606 135.863 20.398C136.2 21.19 136.369 22.0773 136.369 23.06C136.369 23.3387 136.354 23.6173 136.325 23.896C136.296 24.16 136.266 24.3727 136.237 24.534H129.087L129.043 22.29H133.597C133.597 21.718 133.458 21.2487 133.179 20.882C132.9 20.5007 132.438 20.31 131.793 20.31C131.441 20.31 131.096 20.4053 130.759 20.596C130.422 20.7867 130.143 21.1167 129.923 21.586C129.703 22.0553 129.6 22.708 129.615 23.544C129.63 24.3653 129.776 25.0107 130.055 25.48C130.348 25.9493 130.715 26.2867 131.155 26.492C131.595 26.6827 132.057 26.778 132.541 26.778C132.966 26.778 133.37 26.7193 133.751 26.602C134.147 26.47 134.536 26.294 134.917 26.074L135.973 28.054C135.43 28.4353 134.814 28.736 134.125 28.956C133.436 29.1613 132.761 29.264 132.101 29.264Z" fill="black"/>
</svg>
