<svg width="44" height="44" viewBox="0 0 44 44" fill="none" xmlns="http://www.w3.org/2000/svg">
<g clip-path="url(#clip0_131_691)">
<rect width="44" height="44" rx="11" fill="url(#paint0_linear_131_691)"/>
<path opacity="0.1" d="M18.8325 16.9345C19.1194 16.3491 19.608 15.8869 20.2085 15.6331C20.809 15.3793 21.4809 15.3508 22.1007 15.553C22.7205 15.7551 23.2465 16.1743 23.5818 16.7333C23.9172 17.2924 24.0394 17.9537 23.9259 18.5957C24.2722 18.1611 24.5365 17.7029 24.6831 17.2606C24.6872 17.2483 24.6919 17.2363 24.6972 17.2245C23.8883 16.021 23.5808 14.5495 23.84 13.1228C23.9679 12.4019 24.2383 11.7136 24.6354 11.0984C25.0324 10.4832 25.5482 9.9534 26.1525 9.53993C26.235 9.48313 26.3365 9.46115 26.435 9.47874C26.5336 9.49634 26.6212 9.5521 26.6789 9.63391C27.1008 10.2297 27.3993 10.9037 27.557 11.6165C27.7147 12.3293 27.7283 13.0664 27.5971 13.7845C27.4688 14.5109 27.1973 15.2046 26.7984 15.8251C27.7976 15.458 28.8809 15.3844 29.9206 15.6127C30.9603 15.8411 31.913 16.362 32.6665 17.114C32.7378 17.1852 32.7778 17.2819 32.7778 17.3828C32.7778 17.4836 32.7378 17.5803 32.6665 17.6516C31.689 18.6309 30.382 19.2113 29.0001 19.2797C27.6182 19.3482 26.2602 18.8998 25.1907 18.0219C25.0346 18.3399 24.8484 18.6423 24.6347 18.9248C25.2464 18.8956 25.8498 19.0748 26.3465 19.433C26.8431 19.7912 27.2035 20.3073 27.3688 20.8969C27.5341 21.4865 27.4945 22.1147 27.2565 22.6789C27.0185 23.2431 26.5961 23.7099 26.0584 24.0029C26.3285 24.4428 26.4682 24.9503 26.4614 25.4665C26.4559 26.1713 26.1731 26.8455 25.6741 27.3433C25.2418 27.7744 24.6767 28.047 24.0702 28.1168C23.4637 28.1867 22.8513 28.0498 22.3323 27.7283C22.2281 27.8943 22.106 28.0483 21.968 28.1876C21.5088 28.6456 20.9007 28.9238 20.2539 28.9716C19.6071 29.0195 18.9646 28.834 18.443 28.4486C18.3118 28.6981 18.1431 28.926 17.9427 29.1244C17.6914 29.3757 17.393 29.5751 17.0646 29.7111C16.7362 29.8471 16.3842 29.9172 16.0288 29.9172C15.6733 29.9172 15.3214 29.8471 14.993 29.7111C14.6646 29.5751 14.3662 29.3757 14.1148 29.1244C13.8635 28.873 13.6641 28.5746 13.5281 28.2463C13.3921 27.9179 13.3221 27.5659 13.3221 27.2104C13.3221 26.855 13.3921 26.503 13.5281 26.1746C13.6641 25.8462 13.8635 25.5478 14.1148 25.2965C14.2797 25.1327 14.4659 24.9918 14.6682 24.8775C14.2035 24.3621 13.9542 23.6881 13.9718 22.9943C13.9893 22.3006 14.2723 21.64 14.7624 21.1487C14.9216 20.992 15.1011 20.8573 15.296 20.7482C14.9793 20.2297 14.846 19.6198 14.9174 19.0164C14.9889 18.413 15.2609 17.8511 15.69 17.4209C16.0934 17.0151 16.616 16.749 17.1814 16.6615C17.7468 16.574 18.3254 16.6696 18.8325 16.9345V16.9345ZM22.638 16.7508C22.3658 16.4785 22.019 16.2931 21.6414 16.218C21.2638 16.1429 20.8724 16.1815 20.5168 16.3288C20.1611 16.4761 19.8571 16.7256 19.6432 17.0457C19.4293 17.3658 19.3151 17.7421 19.3151 18.1271C19.3151 18.512 19.4293 18.8884 19.6432 19.2085C19.857 19.5286 20.161 19.7781 20.5167 19.9254C20.8724 20.0727 21.2638 20.1113 21.6413 20.0362C22.0189 19.961 22.3657 19.7757 22.638 19.5034C23.0025 19.1381 23.2072 18.6432 23.2072 18.1271C23.2072 17.6111 23.0025 17.1161 22.638 16.7508V16.7508ZM19.3602 23.8785C19.7255 24.243 20.2205 24.4477 20.7366 24.4477C21.2526 24.4477 21.7476 24.243 22.1129 23.8785C22.3038 23.6821 22.4546 23.4504 22.557 23.1963C22.3453 22.8983 22.1962 22.5605 22.1184 22.2033C22.0407 21.8462 22.036 21.477 22.1045 21.1179C22.047 21.061 21.9858 21.0078 21.9212 20.9589C21.8761 20.9403 21.8349 20.9131 21.8001 20.8788C21.7976 20.8763 21.7955 20.8733 21.7931 20.8707C21.7529 20.8455 21.7121 20.8224 21.6707 20.8011C21.1823 20.8753 20.683 20.8152 20.2262 20.6273C19.8998 20.7171 19.6018 20.8887 19.3602 21.1259C18.9957 21.4912 18.791 21.9861 18.791 22.5022C18.791 23.0182 18.9957 23.5132 19.3602 23.8785V23.8785ZM26.8489 13.6506C27.0532 12.5331 26.8477 11.3794 26.2702 10.401C25.3844 11.1201 24.7873 12.1341 24.5881 13.2575C24.3837 14.3813 24.5861 15.5411 25.1592 16.5291C26.0506 15.8043 26.6505 14.7822 26.8489 13.6506V13.6506ZM31.8373 17.3824C30.9669 16.6467 29.8641 16.2431 28.7245 16.2431C27.5848 16.2431 26.482 16.6467 25.6116 17.3824C26.482 18.118 27.5848 18.5216 28.7245 18.5216C29.8641 18.5216 30.9669 18.118 31.8373 17.3824V17.3824ZM26.1383 20.251C25.866 19.9788 25.5192 19.7934 25.1416 19.7183C24.7641 19.6432 24.3727 19.6817 24.017 19.829C23.6613 19.9764 23.3573 20.2258 23.1435 20.5459C22.9296 20.866 22.8154 21.2424 22.8154 21.6273C22.8154 22.0123 22.9296 22.3886 23.1434 22.7087C23.3573 23.0288 23.6613 23.2783 24.017 23.4256C24.3726 23.573 24.764 23.6115 25.1416 23.5364C25.5192 23.4613 25.866 23.2759 26.1382 23.0037C26.5027 22.6384 26.7074 22.1434 26.7074 21.6274C26.7074 21.1113 26.5027 20.6163 26.1383 20.251V20.251ZM25.1366 26.8056C25.4656 26.4758 25.6655 26.039 25.7001 25.5744C25.7347 25.1098 25.6016 24.6483 25.325 24.2734C24.9436 24.3544 24.5492 24.3521 24.1688 24.2668C23.7883 24.1814 23.4308 24.0149 23.1205 23.7787C22.9956 24.0129 22.8373 24.2276 22.6506 24.4163C22.4291 24.6382 22.1705 24.8197 21.8865 24.9526C21.7787 25.3649 21.8098 25.8013 21.9751 26.1942C22.1405 26.587 22.4308 26.9143 22.801 27.1254C23.1713 27.3365 23.6008 27.4196 24.0231 27.3617C24.4453 27.3039 24.8367 27.1084 25.1366 26.8055L25.1366 26.8056ZM21.4304 27.6498C21.5527 27.5256 21.658 27.3857 21.7435 27.2338C21.4982 26.9562 21.3124 26.6313 21.1976 26.2791C21.0829 25.9268 21.0416 25.5548 21.0763 25.186C20.7174 25.2317 20.353 25.2049 20.0047 25.1073C19.6563 25.0096 19.3311 24.8431 19.0482 24.6176C18.9135 24.6948 18.789 24.7888 18.6778 24.8973C18.3128 25.2623 18.1077 25.7574 18.1077 26.2736C18.1077 26.7898 18.3128 27.2849 18.6778 27.6499C19.0429 28.0149 19.5379 28.22 20.0542 28.22C20.5704 28.22 21.0655 28.0149 21.4305 27.6499L21.4304 27.6498ZM14.6524 28.5866C15.0177 28.9511 15.5127 29.1558 16.0288 29.1558C16.5448 29.1558 17.0398 28.9511 17.4051 28.5866C17.6127 28.3859 17.7706 28.1396 17.8663 27.8672C17.6385 27.5534 17.4806 27.1944 17.4032 26.8144C17.3259 26.4344 17.331 26.0423 17.4181 25.6644C17.0685 25.7636 16.7025 25.7916 16.3418 25.7468C15.9812 25.702 15.6332 25.5854 15.3184 25.4037C15.07 25.5015 14.8437 25.6477 14.6525 25.8339C14.288 26.1992 14.0833 26.6941 14.0833 27.2101C14.0833 27.7261 14.2879 28.2211 14.6523 28.5864L14.6524 28.5866ZM15.3 24.4387C15.6653 24.8032 16.1603 25.0079 16.6763 25.0079C17.1924 25.0079 17.6873 24.8032 18.0527 24.4387C18.208 24.2859 18.3337 24.1056 18.4232 23.9069C18.0775 23.3353 17.9547 22.6563 18.0783 21.9999C17.6725 22.0689 17.2563 22.0458 16.8606 21.9324C16.4649 21.819 16.0998 21.6182 15.7921 21.3447C15.6104 21.4305 15.4442 21.5459 15.3001 21.686C14.9356 22.0513 14.7309 22.5463 14.7309 23.0623C14.7308 23.5784 14.9355 24.0734 15.3 24.4387L15.3 24.4387ZM16.2276 20.7109C16.5101 20.9895 16.87 21.1765 17.2604 21.2475C17.6508 21.3186 18.0535 21.2704 18.416 21.1093C18.5298 20.9197 18.6663 20.7448 18.8226 20.5885C18.9792 20.4322 19.1551 20.2964 19.3459 20.1844C19.3618 20.1515 19.3769 20.1177 19.3913 20.0828C19.3768 20.0689 19.3618 20.0555 19.3475 20.0412C19.0418 19.7353 18.814 19.3605 18.683 18.9484C18.5521 18.5362 18.5219 18.0986 18.5949 17.6724C18.1886 17.4279 17.7067 17.3408 17.2405 17.4274C16.7742 17.514 16.3559 17.7684 16.0644 18.1425C15.7729 18.5166 15.6286 18.9845 15.6586 19.4577C15.6886 19.931 15.891 20.3769 16.2274 20.7112L16.2276 20.7109Z" fill="white"/>
<path d="M19.4672 17.7424C19.6974 17.2728 20.0894 16.902 20.5712 16.6983C21.053 16.4947 21.5921 16.4719 22.0894 16.634C22.5866 16.7962 23.0086 17.1325 23.2777 17.5811C23.5467 18.0296 23.6447 18.5602 23.5537 19.0753C23.8316 18.7266 24.0436 18.3589 24.1613 18.0041C24.1645 17.9942 24.1683 17.9846 24.1725 17.9751C23.5236 17.0096 23.2768 15.829 23.4848 14.6843C23.5874 14.1059 23.8043 13.5537 24.1229 13.0601C24.4415 12.5665 24.8553 12.1415 25.3402 11.8097C25.4063 11.7642 25.4878 11.7465 25.5668 11.7606C25.6459 11.7747 25.7162 11.8195 25.7625 11.8851C26.101 12.3631 26.3405 12.9039 26.467 13.4758C26.5935 14.0477 26.6044 14.639 26.4992 15.2152C26.3962 15.798 26.1784 16.3545 25.8583 16.8524C26.66 16.5579 27.5292 16.4988 28.3633 16.682C29.1975 16.8652 29.9619 17.2831 30.5664 17.8864C30.6236 17.9436 30.6557 18.0212 30.6557 18.1021C30.6557 18.183 30.6236 18.2606 30.5664 18.3178C29.7821 19.1035 28.7335 19.5692 27.6248 19.6241C26.516 19.679 25.4266 19.3193 24.5685 18.6149C24.4432 18.8701 24.2938 19.1126 24.1224 19.3393C24.6131 19.3159 25.0973 19.4596 25.4958 19.747C25.8942 20.0344 26.1834 20.4485 26.316 20.9215C26.4486 21.3946 26.4169 21.8986 26.2259 22.3513C26.0349 22.8039 25.696 23.1784 25.2646 23.4135C25.4813 23.7665 25.5934 24.1736 25.588 24.5878C25.5836 25.1532 25.3566 25.6942 24.9563 26.0936C24.6095 26.4395 24.1561 26.6581 23.6695 26.7142C23.1828 26.7702 22.6916 26.6604 22.2752 26.4024C22.1916 26.5356 22.0936 26.6592 21.9829 26.7709C21.6145 27.1384 21.1265 27.3616 20.6076 27.4C20.0887 27.4384 19.5732 27.2895 19.1547 26.9804C19.0494 27.1806 18.9141 27.3634 18.7533 27.5225C18.5517 27.7242 18.3123 27.8842 18.0488 27.9933C17.7853 28.1024 17.5029 28.1586 17.2178 28.1586C16.9326 28.1586 16.6502 28.1024 16.3867 27.9933C16.1232 27.8842 15.8838 27.7242 15.6822 27.5225C15.4805 27.3209 15.3206 27.0815 15.2114 26.818C15.1023 26.5545 15.0461 26.2722 15.0461 25.987C15.0461 25.7018 15.1023 25.4194 15.2114 25.1559C15.3206 24.8924 15.4805 24.6531 15.6822 24.4514C15.8145 24.32 15.9638 24.2069 16.1262 24.1152C15.7533 23.7017 15.5533 23.1609 15.5674 22.6043C15.5814 22.0477 15.8085 21.5177 16.2017 21.1236C16.3295 20.9978 16.4735 20.8898 16.6299 20.8023C16.3758 20.3862 16.2688 19.8969 16.3261 19.4128C16.3834 18.9287 16.6017 18.4779 16.9459 18.1327C17.2696 17.8071 17.6889 17.5937 18.1425 17.5234C18.5961 17.4532 19.0603 17.53 19.4672 17.7424V17.7424ZM22.5204 17.5951C22.302 17.3766 22.0238 17.2279 21.7208 17.1676C21.4179 17.1074 21.1039 17.1383 20.8185 17.2565C20.5332 17.3747 20.2893 17.5748 20.1176 17.8317C19.946 18.0885 19.8545 18.3904 19.8544 18.6993C19.8544 19.0081 19.946 19.3101 20.1176 19.5669C20.2892 19.8237 20.5331 20.0239 20.8185 20.1421C21.1038 20.2603 21.4178 20.2912 21.7208 20.231C22.0237 20.1707 22.302 20.022 22.5204 19.8036C22.8128 19.5105 22.9771 19.1133 22.9771 18.6993C22.9771 18.2853 22.8128 17.8882 22.5204 17.5951V17.5951ZM19.8906 23.3137C20.1837 23.6062 20.5808 23.7704 20.9949 23.7704C21.4089 23.7704 21.806 23.6062 22.0991 23.3137C22.2523 23.1561 22.3733 22.9702 22.4554 22.7664C22.2856 22.5273 22.1659 22.2563 22.1036 21.9697C22.0412 21.6832 22.0374 21.3869 22.0924 21.0989C22.0463 21.0532 21.9971 21.0106 21.9453 20.9713C21.9091 20.9564 21.8761 20.9345 21.8482 20.907C21.8462 20.905 21.8445 20.9026 21.8425 20.9005C21.8103 20.8803 21.7775 20.8618 21.7443 20.8447C21.3525 20.9042 20.9519 20.856 20.5854 20.7052C20.3235 20.7773 20.0844 20.915 19.8906 21.1052C19.5982 21.3983 19.434 21.7955 19.434 22.2095C19.434 22.6235 19.5982 23.0206 19.8906 23.3137V23.3137ZM25.8989 15.1078C26.0627 14.2112 25.8979 13.2855 25.4346 12.5006C24.7239 13.0775 24.2448 13.8911 24.085 14.7924C23.921 15.694 24.0834 16.6245 24.5432 17.4172C25.2584 16.8357 25.7397 16.0157 25.8989 15.1078V15.1078ZM29.9011 18.1018C29.2028 17.5116 28.318 17.1878 27.4037 17.1878C26.4893 17.1878 25.6045 17.5116 24.9062 18.1018C25.6045 18.692 26.4893 19.0159 27.4037 19.0158C28.318 19.0158 29.2028 18.692 29.9011 18.1018V18.1018ZM25.3287 20.4034C25.1103 20.1849 24.8321 20.0362 24.5291 19.9759C24.2262 19.9157 23.9122 19.9466 23.6268 20.0648C23.3415 20.183 23.0976 20.3831 22.926 20.64C22.7543 20.8968 22.6628 21.1987 22.6628 21.5076C22.6627 21.8165 22.7543 22.1184 22.9259 22.3752C23.0975 22.632 23.3414 22.8322 23.6268 22.9504C23.9121 23.0686 24.2261 23.0995 24.5291 23.0393C24.832 22.979 25.1103 22.8303 25.3287 22.6119C25.6211 22.3188 25.7854 21.9216 25.7854 21.5076C25.7854 21.0936 25.6211 20.6965 25.3287 20.4034V20.4034ZM24.525 25.6622C24.789 25.3976 24.9494 25.0471 24.9772 24.6744C25.0049 24.3016 24.8981 23.9313 24.6762 23.6305C24.3702 23.6955 24.0538 23.6937 23.7486 23.6252C23.4433 23.5567 23.1565 23.4232 22.9076 23.2337C22.8073 23.4215 22.6803 23.5938 22.5305 23.7452C22.3528 23.9232 22.1453 24.0688 21.9175 24.1755C21.831 24.5063 21.8559 24.8564 21.9886 25.1716C22.1212 25.4868 22.3541 25.7494 22.6512 25.9187C22.9483 26.0881 23.2929 26.1548 23.6317 26.1084C23.9705 26.062 24.2845 25.9051 24.5251 25.6621L24.525 25.6622ZM21.5515 26.3395C21.6497 26.2398 21.7342 26.1276 21.8028 26.0057C21.6059 25.783 21.4569 25.5223 21.3648 25.2397C21.2727 24.9571 21.2396 24.6587 21.2675 24.3628C20.9795 24.3994 20.6872 24.3779 20.4077 24.2996C20.1282 24.2212 19.8672 24.0876 19.6403 23.9067C19.5322 23.9687 19.4323 24.0441 19.3431 24.1311C19.0503 24.4239 18.8857 24.8211 18.8857 25.2353C18.8857 25.6495 19.0503 26.0467 19.3431 26.3396C19.636 26.6324 20.0332 26.7969 20.4474 26.7969C20.8615 26.7969 21.2587 26.6324 21.5516 26.3396L21.5515 26.3395ZM16.1135 27.0911C16.4066 27.3835 16.8037 27.5477 17.2178 27.5477C17.6318 27.5477 18.0289 27.3835 18.322 27.091C18.4886 26.9301 18.6153 26.7324 18.692 26.5139C18.5092 26.2621 18.3825 25.9741 18.3205 25.6692C18.2585 25.3644 18.2626 25.0497 18.3325 24.7466C18.0519 24.8261 17.7583 24.8486 17.4689 24.8127C17.1796 24.7768 16.9004 24.6832 16.6478 24.5374C16.4486 24.6158 16.2669 24.7332 16.1135 24.8826C15.8211 25.1756 15.6569 25.5727 15.6569 25.9867C15.6569 26.4007 15.821 26.7978 16.1134 27.0909L16.1135 27.0911ZM16.6331 23.7632C16.9262 24.0556 17.3233 24.2199 17.7373 24.2199C18.1513 24.2199 18.5485 24.0556 18.8415 23.7632C18.9662 23.6406 19.067 23.4959 19.1389 23.3365C18.8615 22.8779 18.7629 22.3331 18.8621 21.8065C18.5365 21.8618 18.2026 21.8433 17.8852 21.7524C17.5677 21.6614 17.2747 21.5002 17.0279 21.2808C16.8821 21.3497 16.7487 21.4422 16.6331 21.5546C16.3407 21.8477 16.1764 22.2449 16.1764 22.6589C16.1764 23.0729 16.3406 23.4701 16.6331 23.7632L16.6331 23.7632ZM17.3773 20.7723C17.604 20.9958 17.8927 21.1458 18.2059 21.2029C18.5191 21.2599 18.8422 21.2212 19.1331 21.092C19.2243 20.9399 19.3339 20.7995 19.4593 20.6741C19.585 20.5487 19.726 20.4398 19.8791 20.3499C19.8919 20.3235 19.904 20.2964 19.9156 20.2684C19.9039 20.2572 19.8919 20.2465 19.8804 20.235C19.6352 19.9896 19.4524 19.6889 19.3473 19.3582C19.2422 19.0275 19.218 18.6765 19.2766 18.3345C18.9506 18.1383 18.564 18.0684 18.1899 18.1379C17.8158 18.2074 17.4802 18.4115 17.2463 18.7116C17.0125 19.0118 16.8967 19.3872 16.9208 19.7669C16.9449 20.1466 17.1072 20.5043 17.3771 20.7725L17.3773 20.7723Z" fill="white"/>
<path opacity="0.8" fill-rule="evenodd" clip-rule="evenodd" d="M21.9494 35.945C29.6367 35.945 35.8685 29.7132 35.8685 22.0259C35.8685 14.3386 29.6367 8.10676 21.9494 8.10676C14.262 8.10676 8.03022 14.3386 8.03022 22.0259C8.03022 29.7132 14.262 35.945 21.9494 35.945ZM21.9494 38.6335C31.1215 38.6335 38.5569 31.198 38.5569 22.0259C38.5569 12.8538 31.1215 5.41833 21.9494 5.41833C12.7773 5.41833 5.3418 12.8538 5.3418 22.0259C5.3418 31.198 12.7773 38.6335 21.9494 38.6335Z" fill="#E83939"/>
<path opacity="0.5" fill-rule="evenodd" clip-rule="evenodd" d="M1.48552 5.43429C2.16093 5.43429 2.70846 4.88677 2.70846 4.21135C2.70846 3.53594 2.16093 2.98841 1.48552 2.98841C0.810111 2.98841 0.262582 3.53594 0.262582 4.21135C0.262582 4.88677 0.810111 5.43429 1.48552 5.43429ZM1.48552 7.00254C3.02705 7.00254 4.27671 5.75288 4.27671 4.21135C4.27671 2.66982 3.02705 1.42017 1.48552 1.42017C-0.0560069 1.42017 -1.30566 2.66982 -1.30566 4.21135C-1.30566 5.75288 -0.0560069 7.00254 1.48552 7.00254Z" fill="#E83939"/>
<path opacity="0.5" fill-rule="evenodd" clip-rule="evenodd" d="M42.8584 7.2755C43.8566 7.2755 44.6659 6.46626 44.6659 5.46801C44.6659 4.46976 43.8566 3.66052 42.8584 3.66052C41.8601 3.66052 41.0509 4.46976 41.0509 5.46801C41.0509 6.46626 41.8601 7.2755 42.8584 7.2755ZM42.8584 9.51585C45.094 9.51585 46.9062 7.70357 46.9062 5.46801C46.9062 3.23245 45.094 1.42017 42.8584 1.42017C40.6228 1.42017 38.8105 3.23245 38.8105 5.46801C38.8105 7.70357 40.6228 9.51585 42.8584 9.51585Z" fill="#E83939"/>
<path opacity="0.5" fill-rule="evenodd" clip-rule="evenodd" d="M1.48534 30.9149C2.48359 30.9149 3.29283 30.1057 3.29283 29.1074C3.29283 28.1092 2.48359 27.2999 1.48534 27.2999C0.487093 27.2999 -0.322149 28.1092 -0.322149 29.1074C-0.322149 30.1057 0.487093 30.9149 1.48534 30.9149ZM1.48534 33.1553C3.7209 33.1553 5.53319 31.343 5.53319 29.1074C5.53319 26.8719 3.7209 25.0596 1.48534 25.0596C-0.750219 25.0596 -2.5625 26.8719 -2.5625 29.1074C-2.5625 31.343 -0.750219 33.1553 1.48534 33.1553Z" fill="#E83939"/>
<path opacity="0.5" fill-rule="evenodd" clip-rule="evenodd" d="M45.1631 35.0622C45.8756 35.0622 46.4532 34.4846 46.4532 33.7721C46.4532 33.0596 45.8756 32.4819 45.1631 32.4819C44.4506 32.4819 43.8729 33.0596 43.8729 33.7721C43.8729 34.4846 44.4506 35.0622 45.1631 35.0622ZM45.1631 36.6305C46.7417 36.6305 48.0215 35.3507 48.0215 33.7721C48.0215 32.1934 46.7417 30.9137 45.1631 30.9137C43.5844 30.9137 42.3047 32.1934 42.3047 33.7721C42.3047 35.3507 43.5844 36.6305 45.1631 36.6305Z" fill="#E83939"/>
<path opacity="0.4" fill-rule="evenodd" clip-rule="evenodd" d="M16.4809 43.5118C16.9585 43.5118 17.3456 43.1246 17.3456 42.6471C17.3456 42.1695 16.9585 41.7824 16.4809 41.7824C16.0034 41.7824 15.6163 42.1695 15.6163 42.6471C15.6163 43.1246 16.0034 43.5118 16.4809 43.5118ZM16.4809 44.6319C17.5771 44.6319 18.4658 43.7433 18.4658 42.6471C18.4658 41.5509 17.5771 40.6622 16.4809 40.6622C15.3847 40.6622 14.4961 41.5509 14.4961 42.6471C14.4961 43.7433 15.3847 44.6319 16.4809 44.6319Z" fill="white"/>
<path opacity="0.4" fill-rule="evenodd" clip-rule="evenodd" d="M24.1255 0.299968C24.603 0.299968 24.9902 -0.0871607 24.9902 -0.564708C24.9902 -1.04226 24.603 -1.42938 24.1255 -1.42938C23.6479 -1.42938 23.2608 -1.04226 23.2608 -0.564708C23.2608 -0.0871607 23.6479 0.299968 24.1255 0.299968ZM24.1255 1.42014C25.2217 1.42014 26.1103 0.531495 26.1103 -0.564708C26.1103 -1.66091 25.2217 -2.54956 24.1255 -2.54956C23.0293 -2.54956 22.1406 -1.66091 22.1406 -0.564708C22.1406 0.531495 23.0293 1.42014 24.1255 1.42014Z" fill="white"/>
<path opacity="0.8" d="M46.5644 22.7547C46.5644 23.8167 45.7035 24.6775 44.6416 24.6775C43.5796 24.6775 42.7188 23.8167 42.7188 22.7547C42.7188 21.6928 43.5796 20.8319 44.6416 20.8319C45.7035 20.8319 46.5644 21.6928 46.5644 22.7547Z" fill="#E83939"/>
<path opacity="0.1" d="M39.6439 42.647C39.6439 44.7775 37.9168 46.5046 35.7863 46.5046C33.6558 46.5046 31.9287 44.7775 31.9287 42.647C31.9287 40.5165 33.6558 38.7894 35.7863 38.7894C37.9168 38.7894 39.6439 40.5165 39.6439 42.647Z" fill="white"/>
<path opacity="0.8" d="M3.12986 19.9765C3.12986 19.504 2.74686 19.121 2.2744 19.121C1.80195 19.121 1.41895 19.504 1.41895 19.9765C1.41895 20.4489 1.80195 20.8319 2.2744 20.8319C2.74686 20.8319 3.12986 20.4489 3.12986 19.9765Z" fill="#E83939"/>
<path opacity="0.8" d="M35.936 -0.701629C35.936 -1.72218 35.1087 -2.5495 34.0881 -2.5495C33.0676 -2.5495 32.2402 -1.72218 32.2402 -0.701629C32.2402 0.318921 33.0676 1.14624 34.0881 1.14624C35.1087 1.14624 35.936 0.318921 35.936 -0.701629Z" fill="#E83939"/>
<path opacity="0.8" d="M4.8408 43.2286C4.8408 42.7562 4.4578 42.3732 3.98534 42.3732C3.51288 42.3732 3.12988 42.7562 3.12988 43.2286C3.12988 43.7011 3.51288 44.0841 3.98534 44.0841C4.4578 44.0841 4.8408 43.7011 4.8408 43.2286Z" fill="#E83939"/>
<path opacity="0.8" d="M26.9658 42.3732C26.9658 41.9007 26.5828 41.5177 26.1103 41.5177C25.6379 41.5177 25.2549 41.9007 25.2549 42.3732C25.2549 42.8456 25.6379 43.2286 26.1103 43.2286C26.5828 43.2286 26.9658 42.8456 26.9658 42.3732Z" fill="#E83939"/>
<path opacity="0.1" d="M18.4655 -3.17751C18.4655 -0.0944531 15.9662 2.40486 12.8832 2.40486C9.8001 2.40486 7.30078 -0.0944531 7.30078 -3.17751C7.30078 -6.26057 9.8001 -8.75989 12.8832 -8.75989C15.9662 -8.75989 18.4655 -6.26057 18.4655 -3.17751Z" fill="white"/>
</g>
<defs>
<linearGradient id="paint0_linear_131_691" x1="0" y1="0" x2="51.4086" y2="11.8445" gradientUnits="userSpaceOnUse">
<stop stop-color="#E83939" stop-opacity="0.8"/>
<stop offset="1" stop-color="#FF7F56"/>
</linearGradient>
<clipPath id="clip0_131_691">
<rect width="44" height="44" rx="11" fill="white"/>
</clipPath>
</defs>
</svg>
